# xmcd
#
# Track frame offsets:
#	150
#	10945
#	22244
#	36709
#	54916
#	70832
#	84670
#	94752
#	112487
#	124101
#	138460
#	157062
#	171642
#	187859
#	199778
#	225389
#
# Disc length: 3181 seconds
#
# Revision: 1
# Processed by: cddbd v1.5.2PL0 Copyright (c) Steve Scherf et al.
# Submitted via: audiograbber 1.83.01
#
DISCID=e80c6b10
DTITLE=Chris Duffy  - Banjo Time
DYEAR=2012
DGENRE=Country
TTITLE0=Durhams Bull
TTITLE1=Little Rock Getaway
TTITLE2=Birth of the Blues
TTITLE3=Billy in the Lowground
TTITLE4=Wolfgang meets Jed Clampett
TTITLE5=Limehouse Blues
TTITLE6=Salt Creek
TTITLE7=Dill Pickle Rab Rag - Black White Rag
TTITLE8=Rondo a la Turque
TTITLE9=Big Sandy - Washington Country Breakdown
TTITLE10=Granada
TTITLE11=Tico Tico
TTITLE12=Tennessaa Stud
TTITLE13=Dougs Tune - Banjo in the Holler
TTITLE14=Do you konw what it means to be Miss Orleans
TTITLE15=Bye Bye Blues
EXTD=
EXTT0=
EXTT1=
EXTT2=
EXTT3=
EXTT4=
EXTT5=
EXTT6=
EXTT7=
EXTT8=
EXTT9=
EXTT10=
EXTT11=
EXTT12=
EXTT13=
EXTT14=
EXTT15=
PLAYORDER=
